<svg id="visual" viewBox="0 0 900 600" width="900" height="600" xmlns="http://www.w3.org/2000/svg" xmlns:xlink="http://www.w3.org/1999/xlink" version="1.1"><g stroke-width="1" stroke-linejoin="bevel"><path d="M460 301L459 269L403 295Z" fill="#1f6d9d" stroke="#1f6d9d"></path><path d="M459 269L394 238L403 295Z" fill="#2aa0da" stroke="#2aa0da"></path><path d="M355 266L354 289L403 295Z" fill="#0d3f64" stroke="#0d3f64"></path><path d="M394 238L355 266L403 295Z" fill="#2aa0da" stroke="#2aa0da"></path><path d="M459 269L430 204L394 238Z" fill="#0d3f64" stroke="#0d3f64"></path><path d="M352 192L315 250L355 266Z" fill="#124a72" stroke="#124a72"></path><path d="M488 370L514 317L460 301Z" fill="#124a72" stroke="#124a72"></path><path d="M460 301L514 317L459 269Z" fill="#0d3f64" stroke="#0d3f64"></path><path d="M459 269L488 180L430 204Z" fill="#1b618e" stroke="#1b618e"></path><path d="M460 369L460 301L403 295Z" fill="#175580" stroke="#175580"></path><path d="M392 369L460 369L403 295Z" fill="#1f6d9d" stroke="#1f6d9d"></path><path d="M514 317L514 246L459 269Z" fill="#0d3f64" stroke="#0d3f64"></path><path d="M363 356L392 369L403 295Z" fill="#175580" stroke="#175580"></path><path d="M354 289L363 356L403 295Z" fill="#1b618e" stroke="#1b618e"></path><path d="M432 403L488 370L460 369Z" fill="#2cade9" stroke="#2cade9"></path><path d="M460 369L488 370L460 301Z" fill="#2893ca" stroke="#2893ca"></path><path d="M430 204L395 187L394 238Z" fill="#083456" stroke="#083456"></path><path d="M543 350L539 302L514 317Z" fill="#0d3f64" stroke="#0d3f64"></path><path d="M514 317L539 302L514 246Z" fill="#2893ca" stroke="#2893ca"></path><path d="M539 302L543 268L514 246Z" fill="#2cade9" stroke="#2cade9"></path><path d="M409 402L432 403L392 369Z" fill="#1b618e" stroke="#1b618e"></path><path d="M392 369L432 403L460 369Z" fill="#1f6d9d" stroke="#1f6d9d"></path><path d="M352 403L409 402L392 369Z" fill="#2279ac" stroke="#2279ac"></path><path d="M556 208L488 180L514 246Z" fill="#0d3f64" stroke="#0d3f64"></path><path d="M514 246L488 180L459 269Z" fill="#1f6d9d" stroke="#1f6d9d"></path><path d="M430 204L414 150L395 187Z" fill="#2279ac" stroke="#2279ac"></path><path d="M352 192L355 266L394 238Z" fill="#0d3f64" stroke="#0d3f64"></path><path d="M355 266L305 292L354 289Z" fill="#1f6d9d" stroke="#1f6d9d"></path><path d="M354 289L293 339L363 356Z" fill="#124a72" stroke="#124a72"></path><path d="M395 187L352 192L394 238Z" fill="#083456" stroke="#083456"></path><path d="M488 180L458 161L430 204Z" fill="#2279ac" stroke="#2279ac"></path><path d="M395 187L369 147L352 192Z" fill="#083456" stroke="#083456"></path><path d="M520 409L543 350L488 370Z" fill="#2586bb" stroke="#2586bb"></path><path d="M488 370L543 350L514 317Z" fill="#124a72" stroke="#124a72"></path><path d="M539 302L593 295L543 268Z" fill="#0d3f64" stroke="#0d3f64"></path><path d="M315 250L305 292L355 266Z" fill="#083456" stroke="#083456"></path><path d="M458 161L414 150L430 204Z" fill="#1b618e" stroke="#1b618e"></path><path d="M302 129L313 210L352 192Z" fill="#2aa0da" stroke="#2aa0da"></path><path d="M352 192L313 210L315 250Z" fill="#1f6d9d" stroke="#1f6d9d"></path><path d="M315 250L267 267L305 292Z" fill="#2aa0da" stroke="#2aa0da"></path><path d="M293 339L352 403L363 356Z" fill="#2586bb" stroke="#2586bb"></path><path d="M363 356L352 403L392 369Z" fill="#2893ca" stroke="#2893ca"></path><path d="M409 402L421 447L432 403Z" fill="#124a72" stroke="#124a72"></path><path d="M594 260L556 208L543 268Z" fill="#124a72" stroke="#124a72"></path><path d="M543 268L556 208L514 246Z" fill="#124a72" stroke="#124a72"></path><path d="M488 180L506 129L458 161Z" fill="#1b618e" stroke="#1b618e"></path><path d="M252 302L293 339L305 292Z" fill="#2893ca" stroke="#2893ca"></path><path d="M305 292L293 339L354 289Z" fill="#1b618e" stroke="#1b618e"></path><path d="M496 451L488 370L432 403Z" fill="#2279ac" stroke="#2279ac"></path><path d="M496 451L520 409L488 370Z" fill="#2893ca" stroke="#2893ca"></path><path d="M414 150L369 147L395 187Z" fill="#1f6d9d" stroke="#1f6d9d"></path><path d="M602 332L539 302L543 350Z" fill="#124a72" stroke="#124a72"></path><path d="M602 332L593 295L539 302Z" fill="#175580" stroke="#175580"></path><path d="M358 467L421 447L409 402Z" fill="#2586bb" stroke="#2586bb"></path><path d="M593 295L594 260L543 268Z" fill="#2893ca" stroke="#2893ca"></path><path d="M313 210L267 267L315 250Z" fill="#175580" stroke="#175580"></path><path d="M558 141L488 180L556 208Z" fill="#2279ac" stroke="#2279ac"></path><path d="M558 141L506 129L488 180Z" fill="#175580" stroke="#175580"></path><path d="M458 161L437 105L414 150Z" fill="#083456" stroke="#083456"></path><path d="M414 150L386 103L369 147Z" fill="#175580" stroke="#175580"></path><path d="M496 451L548 415L520 409Z" fill="#2893ca" stroke="#2893ca"></path><path d="M520 409L548 415L543 350Z" fill="#083456" stroke="#083456"></path><path d="M293 339L317 417L352 403Z" fill="#2586bb" stroke="#2586bb"></path><path d="M352 403L358 467L409 402Z" fill="#1b618e" stroke="#1b618e"></path><path d="M230 393L317 417L293 339Z" fill="#083456" stroke="#083456"></path><path d="M602 410L602 332L543 350Z" fill="#1b618e" stroke="#1b618e"></path><path d="M671 308L632 233L594 260Z" fill="#2cade9" stroke="#2cade9"></path><path d="M421 447L470 458L432 403Z" fill="#0d3f64" stroke="#0d3f64"></path><path d="M470 458L496 451L432 403Z" fill="#124a72" stroke="#124a72"></path><path d="M494 109L437 105L458 161Z" fill="#175580" stroke="#175580"></path><path d="M267 267L252 302L305 292Z" fill="#1b618e" stroke="#1b618e"></path><path d="M632 233L594 193L594 260Z" fill="#2cade9" stroke="#2cade9"></path><path d="M594 260L594 193L556 208Z" fill="#2aa0da" stroke="#2aa0da"></path><path d="M541 67L494 109L506 129Z" fill="#124a72" stroke="#124a72"></path><path d="M506 129L494 109L458 161Z" fill="#2aa0da" stroke="#2aa0da"></path><path d="M437 105L386 103L414 150Z" fill="#175580" stroke="#175580"></path><path d="M302 129L262 192L313 210Z" fill="#2586bb" stroke="#2586bb"></path><path d="M313 210L262 192L267 267Z" fill="#2aa0da" stroke="#2aa0da"></path><path d="M583 167L558 141L556 208Z" fill="#0d3f64" stroke="#0d3f64"></path><path d="M594 193L583 167L556 208Z" fill="#2aa0da" stroke="#2aa0da"></path><path d="M302 129L352 192L369 147Z" fill="#1b618e" stroke="#1b618e"></path><path d="M191 320L214 335L252 302Z" fill="#1b618e" stroke="#1b618e"></path><path d="M317 417L358 467L352 403Z" fill="#1f6d9d" stroke="#1f6d9d"></path><path d="M421 447L456 500L470 458Z" fill="#2586bb" stroke="#2586bb"></path><path d="M347 79L302 129L369 147Z" fill="#2279ac" stroke="#2279ac"></path><path d="M671 308L594 260L593 295Z" fill="#2cade9" stroke="#2cade9"></path><path d="M645 137L586 118L583 167Z" fill="#083456" stroke="#083456"></path><path d="M214 335L238 357L252 302Z" fill="#124a72" stroke="#124a72"></path><path d="M252 302L238 357L293 339Z" fill="#1b618e" stroke="#1b618e"></path><path d="M317 417L297 452L358 467Z" fill="#2893ca" stroke="#2893ca"></path><path d="M567 459L602 410L548 415Z" fill="#124a72" stroke="#124a72"></path><path d="M548 415L602 410L543 350Z" fill="#1b618e" stroke="#1b618e"></path><path d="M602 332L671 308L593 295Z" fill="#2279ac" stroke="#2279ac"></path><path d="M336 497L383 493L358 467Z" fill="#124a72" stroke="#124a72"></path><path d="M358 467L383 493L421 447Z" fill="#2279ac" stroke="#2279ac"></path><path d="M470 458L485 502L496 451Z" fill="#083456" stroke="#083456"></path><path d="M266 449L297 452L317 417Z" fill="#124a72" stroke="#124a72"></path><path d="M383 493L456 500L421 447Z" fill="#2893ca" stroke="#2893ca"></path><path d="M496 451L567 459L548 415Z" fill="#1b618e" stroke="#1b618e"></path><path d="M528 487L567 459L496 451Z" fill="#2893ca" stroke="#2893ca"></path><path d="M456 500L485 502L470 458Z" fill="#2279ac" stroke="#2279ac"></path><path d="M485 502L528 487L496 451Z" fill="#124a72" stroke="#124a72"></path><path d="M386 103L347 79L369 147Z" fill="#2586bb" stroke="#2586bb"></path><path d="M384 31L347 79L386 103Z" fill="#2aa0da" stroke="#2aa0da"></path><path d="M444 53L386 103L437 105Z" fill="#083456" stroke="#083456"></path><path d="M191 320L252 302L185 254Z" fill="#2893ca" stroke="#2893ca"></path><path d="M238 357L230 393L293 339Z" fill="#1f6d9d" stroke="#1f6d9d"></path><path d="M558 141L571 93L506 129Z" fill="#2aa0da" stroke="#2aa0da"></path><path d="M494 109L444 53L437 105Z" fill="#2586bb" stroke="#2586bb"></path><path d="M583 167L586 118L558 141Z" fill="#124a72" stroke="#124a72"></path><path d="M645 137L583 167L594 193Z" fill="#2586bb" stroke="#2586bb"></path><path d="M214 335L230 393L238 357Z" fill="#2586bb" stroke="#2586bb"></path><path d="M299 515L336 497L297 452Z" fill="#083456" stroke="#083456"></path><path d="M297 452L336 497L358 467Z" fill="#175580" stroke="#175580"></path><path d="M383 493L453 535L456 500Z" fill="#124a72" stroke="#124a72"></path><path d="M456 500L453 535L485 502Z" fill="#175580" stroke="#175580"></path><path d="M687 355L658 344L667 416Z" fill="#1b618e" stroke="#1b618e"></path><path d="M602 410L658 344L602 332Z" fill="#1b618e" stroke="#1b618e"></path><path d="M515 47L444 53L494 109Z" fill="#124a72" stroke="#124a72"></path><path d="M230 393L266 449L317 417Z" fill="#1f6d9d" stroke="#1f6d9d"></path><path d="M610 510L594 458L567 459Z" fill="#083456" stroke="#083456"></path><path d="M567 459L594 458L602 410Z" fill="#2893ca" stroke="#2893ca"></path><path d="M302 129L252 133L262 192Z" fill="#1b618e" stroke="#1b618e"></path><path d="M262 192L210 200L267 267Z" fill="#2893ca" stroke="#2893ca"></path><path d="M293 94L252 133L302 129Z" fill="#175580" stroke="#175580"></path><path d="M586 118L571 93L558 141Z" fill="#2893ca" stroke="#2893ca"></path><path d="M347 79L293 94L302 129Z" fill="#124a72" stroke="#124a72"></path><path d="M252 133L210 200L262 192Z" fill="#175580" stroke="#175580"></path><path d="M658 344L671 308L602 332Z" fill="#124a72" stroke="#124a72"></path><path d="M632 233L665 202L594 193Z" fill="#175580" stroke="#175580"></path><path d="M571 93L541 67L506 129Z" fill="#0d3f64" stroke="#0d3f64"></path><path d="M185 254L252 302L267 267Z" fill="#2586bb" stroke="#2586bb"></path><path d="M170 407L209 414L230 393Z" fill="#1b618e" stroke="#1b618e"></path><path d="M718 245L665 202L632 233Z" fill="#2279ac" stroke="#2279ac"></path><path d="M586 118L653 117L571 93Z" fill="#2893ca" stroke="#2893ca"></path><path d="M344 36L306 71L347 79Z" fill="#175580" stroke="#175580"></path><path d="M347 79L306 71L293 94Z" fill="#083456" stroke="#083456"></path><path d="M293 94L238 119L252 133Z" fill="#175580" stroke="#175580"></path><path d="M210 200L185 254L267 267Z" fill="#1f6d9d" stroke="#1f6d9d"></path><path d="M397 553L453 535L383 493Z" fill="#2279ac" stroke="#2279ac"></path><path d="M485 502L505 533L528 487Z" fill="#2cade9" stroke="#2cade9"></path><path d="M528 487L571 530L567 459Z" fill="#124a72" stroke="#124a72"></path><path d="M541 67L515 47L494 109Z" fill="#2cade9" stroke="#2cade9"></path><path d="M252 133L189 157L210 200Z" fill="#175580" stroke="#175580"></path><path d="M210 200L165 200L185 254Z" fill="#175580" stroke="#175580"></path><path d="M228 53L238 119L293 94Z" fill="#1f6d9d" stroke="#1f6d9d"></path><path d="M453 535L505 533L485 502Z" fill="#2279ac" stroke="#2279ac"></path><path d="M170 407L230 393L214 335Z" fill="#175580" stroke="#175580"></path><path d="M230 393L209 414L266 449Z" fill="#083456" stroke="#083456"></path><path d="M263 503L299 515L297 452Z" fill="#1f6d9d" stroke="#1f6d9d"></path><path d="M665 202L645 137L594 193Z" fill="#2893ca" stroke="#2893ca"></path><path d="M571 93L581 39L541 67Z" fill="#2279ac" stroke="#2279ac"></path><path d="M541 67L541 0L515 47Z" fill="#2893ca" stroke="#2893ca"></path><path d="M464 0L384 31L444 53Z" fill="#083456" stroke="#083456"></path><path d="M444 53L384 31L386 103Z" fill="#1f6d9d" stroke="#1f6d9d"></path><path d="M658 344L687 355L671 308Z" fill="#2cade9" stroke="#2cade9"></path><path d="M718 245L680 194L665 202Z" fill="#1b618e" stroke="#1b618e"></path><path d="M667 416L658 344L602 410Z" fill="#124a72" stroke="#124a72"></path><path d="M718 245L632 233L671 308Z" fill="#175580" stroke="#175580"></path><path d="M665 202L690 163L645 137Z" fill="#2893ca" stroke="#2893ca"></path><path d="M384 31L344 36L347 79Z" fill="#0d3f64" stroke="#0d3f64"></path><path d="M306 71L228 53L293 94Z" fill="#124a72" stroke="#124a72"></path><path d="M263 503L297 452L266 449Z" fill="#2cade9" stroke="#2cade9"></path><path d="M350 566L397 553L383 493Z" fill="#2cade9" stroke="#2cade9"></path><path d="M669 439L602 410L594 458Z" fill="#2893ca" stroke="#2893ca"></path><path d="M669 439L667 416L602 410Z" fill="#2279ac" stroke="#2279ac"></path><path d="M350 566L383 493L336 497Z" fill="#2893ca" stroke="#2893ca"></path><path d="M453 535L485 600L505 533Z" fill="#1b618e" stroke="#1b618e"></path><path d="M191 495L263 503L266 449Z" fill="#2279ac" stroke="#2279ac"></path><path d="M299 515L350 566L336 497Z" fill="#2cade9" stroke="#2cade9"></path><path d="M200 78L189 157L238 119Z" fill="#1f6d9d" stroke="#1f6d9d"></path><path d="M238 119L189 157L252 133Z" fill="#0d3f64" stroke="#0d3f64"></path><path d="M690 163L653 117L645 137Z" fill="#2cade9" stroke="#2cade9"></path><path d="M645 137L653 117L586 118Z" fill="#175580" stroke="#175580"></path><path d="M614 540L571 530L594 600Z" fill="#2893ca" stroke="#2893ca"></path><path d="M505 533L571 530L528 487Z" fill="#124a72" stroke="#124a72"></path><path d="M189 157L165 200L210 200Z" fill="#2279ac" stroke="#2279ac"></path><path d="M185 254L131 306L191 320Z" fill="#2279ac" stroke="#2279ac"></path><path d="M191 320L170 407L214 335Z" fill="#2279ac" stroke="#2279ac"></path><path d="M628 502L669 439L594 458Z" fill="#1b618e" stroke="#1b618e"></path><path d="M667 416L705 418L687 355Z" fill="#124a72" stroke="#124a72"></path><path d="M732 161L690 163L680 194Z" fill="#0d3f64" stroke="#0d3f64"></path><path d="M680 194L690 163L665 202Z" fill="#2cade9" stroke="#2cade9"></path><path d="M571 530L610 510L567 459Z" fill="#2586bb" stroke="#2586bb"></path><path d="M735 306L720 294L687 355Z" fill="#2586bb" stroke="#2586bb"></path><path d="M687 355L720 294L671 308Z" fill="#2893ca" stroke="#2893ca"></path><path d="M503 0L464 0L515 47Z" fill="#083456" stroke="#083456"></path><path d="M515 47L464 0L444 53Z" fill="#083456" stroke="#083456"></path><path d="M384 31L378 0L344 36Z" fill="#0d3f64" stroke="#0d3f64"></path><path d="M654 46L581 39L571 93Z" fill="#1f6d9d" stroke="#1f6d9d"></path><path d="M720 294L718 245L671 308Z" fill="#083456" stroke="#083456"></path><path d="M129 337L170 407L191 320Z" fill="#2279ac" stroke="#2279ac"></path><path d="M209 414L191 495L266 449Z" fill="#2893ca" stroke="#2893ca"></path><path d="M170 407L180 430L209 414Z" fill="#124a72" stroke="#124a72"></path><path d="M464 0L378 0L384 31Z" fill="#2cade9" stroke="#2cade9"></path><path d="M344 36L285 0L306 71Z" fill="#083456" stroke="#083456"></path><path d="M614 540L628 502L610 510Z" fill="#1f6d9d" stroke="#1f6d9d"></path><path d="M610 510L628 502L594 458Z" fill="#1b618e" stroke="#1b618e"></path><path d="M283 555L350 566L299 515Z" fill="#175580" stroke="#175580"></path><path d="M535 600L571 530L505 533Z" fill="#1f6d9d" stroke="#1f6d9d"></path><path d="M541 0L503 0L515 47Z" fill="#2586bb" stroke="#2586bb"></path><path d="M378 0L338 0L344 36Z" fill="#2aa0da" stroke="#2aa0da"></path><path d="M130 258L131 306L185 254Z" fill="#1f6d9d" stroke="#1f6d9d"></path><path d="M701 437L667 416L669 439Z" fill="#0d3f64" stroke="#0d3f64"></path><path d="M701 437L705 418L667 416Z" fill="#2aa0da" stroke="#2aa0da"></path><path d="M752 358L735 306L687 355Z" fill="#2586bb" stroke="#2586bb"></path><path d="M720 294L752 240L718 245Z" fill="#1f6d9d" stroke="#1f6d9d"></path><path d="M110 235L130 258L165 200Z" fill="#1b618e" stroke="#1b618e"></path><path d="M165 200L130 258L185 254Z" fill="#2586bb" stroke="#2586bb"></path><path d="M581 39L541 0L541 67Z" fill="#083456" stroke="#083456"></path><path d="M693 479L701 437L669 439Z" fill="#175580" stroke="#175580"></path><path d="M705 418L752 358L687 355Z" fill="#1b618e" stroke="#1b618e"></path><path d="M252 557L283 555L263 503Z" fill="#2893ca" stroke="#2893ca"></path><path d="M263 503L283 555L299 515Z" fill="#124a72" stroke="#124a72"></path><path d="M113 295L129 337L131 306Z" fill="#2aa0da" stroke="#2aa0da"></path><path d="M131 306L129 337L191 320Z" fill="#083456" stroke="#083456"></path><path d="M160 508L191 495L128 470Z" fill="#175580" stroke="#175580"></path><path d="M285 0L228 53L306 71Z" fill="#083456" stroke="#083456"></path><path d="M189 157L138 166L165 200Z" fill="#124a72" stroke="#124a72"></path><path d="M228 53L200 78L238 119Z" fill="#1b618e" stroke="#1b618e"></path><path d="M571 530L614 540L610 510Z" fill="#1b618e" stroke="#1b618e"></path><path d="M628 502L693 479L669 439Z" fill="#1f6d9d" stroke="#1f6d9d"></path><path d="M435 600L453 535L397 553Z" fill="#2893ca" stroke="#2893ca"></path><path d="M402 600L397 553L350 566Z" fill="#2279ac" stroke="#2279ac"></path><path d="M402 600L435 600L397 553Z" fill="#1b618e" stroke="#1b618e"></path><path d="M353 600L402 600L350 566Z" fill="#2586bb" stroke="#2586bb"></path><path d="M149 100L138 166L189 157Z" fill="#1f6d9d" stroke="#1f6d9d"></path><path d="M435 600L485 600L453 535Z" fill="#083456" stroke="#083456"></path><path d="M128 470L180 430L170 407Z" fill="#175580" stroke="#175580"></path><path d="M180 430L191 495L209 414Z" fill="#2aa0da" stroke="#2aa0da"></path><path d="M130 258L113 295L131 306Z" fill="#0d3f64" stroke="#0d3f64"></path><path d="M110 235L113 295L130 258Z" fill="#124a72" stroke="#124a72"></path><path d="M338 0L285 0L344 36Z" fill="#175580" stroke="#175580"></path><path d="M152 57L149 100L200 78Z" fill="#2aa0da" stroke="#2aa0da"></path><path d="M735 306L752 240L720 294Z" fill="#0d3f64" stroke="#0d3f64"></path><path d="M718 245L732 161L680 194Z" fill="#175580" stroke="#175580"></path><path d="M690 163L708 101L653 117Z" fill="#2cade9" stroke="#2cade9"></path><path d="M651 537L693 479L628 502Z" fill="#2279ac" stroke="#2279ac"></path><path d="M766 386L752 358L705 418Z" fill="#1f6d9d" stroke="#1f6d9d"></path><path d="M735 306L790 308L752 240Z" fill="#2cade9" stroke="#2cade9"></path><path d="M294 600L353 600L350 566Z" fill="#1b618e" stroke="#1b618e"></path><path d="M765 204L732 161L718 245Z" fill="#2279ac" stroke="#2279ac"></path><path d="M653 117L654 46L571 93Z" fill="#0d3f64" stroke="#0d3f64"></path><path d="M581 39L598 0L541 0Z" fill="#1f6d9d" stroke="#1f6d9d"></path><path d="M191 495L252 557L263 503Z" fill="#0d3f64" stroke="#0d3f64"></path><path d="M283 555L294 600L350 566Z" fill="#175580" stroke="#175580"></path><path d="M683 67L654 46L653 117Z" fill="#083456" stroke="#083456"></path><path d="M138 166L110 235L165 200Z" fill="#1b618e" stroke="#1b618e"></path><path d="M741 429L705 418L701 437Z" fill="#1b618e" stroke="#1b618e"></path><path d="M654 46L598 0L581 39Z" fill="#124a72" stroke="#124a72"></path><path d="M485 600L535 600L505 533Z" fill="#1f6d9d" stroke="#1f6d9d"></path><path d="M732 161L708 101L690 163Z" fill="#0d3f64" stroke="#0d3f64"></path><path d="M708 101L683 67L653 117Z" fill="#2586bb" stroke="#2586bb"></path><path d="M654 46L645 0L598 0Z" fill="#0d3f64" stroke="#0d3f64"></path><path d="M652 600L651 537L614 540Z" fill="#083456" stroke="#083456"></path><path d="M614 540L651 537L628 502Z" fill="#083456" stroke="#083456"></path><path d="M200 78L149 100L189 157Z" fill="#2aa0da" stroke="#2aa0da"></path><path d="M138 166L109 169L110 235Z" fill="#2cade9" stroke="#2cade9"></path><path d="M200 29L200 78L228 53Z" fill="#1b618e" stroke="#1b618e"></path><path d="M285 0L249 0L228 53Z" fill="#2aa0da" stroke="#2aa0da"></path><path d="M730 479L701 437L693 479Z" fill="#2cade9" stroke="#2cade9"></path><path d="M730 479L741 429L701 437Z" fill="#1f6d9d" stroke="#1f6d9d"></path><path d="M784 212L765 204L752 240Z" fill="#2893ca" stroke="#2893ca"></path><path d="M752 240L765 204L718 245Z" fill="#124a72" stroke="#124a72"></path><path d="M732 161L754 110L708 101Z" fill="#0d3f64" stroke="#0d3f64"></path><path d="M229 600L294 600L252 557Z" fill="#2aa0da" stroke="#2aa0da"></path><path d="M252 557L294 600L283 555Z" fill="#1b618e" stroke="#1b618e"></path><path d="M118 92L109 169L138 166Z" fill="#2586bb" stroke="#2586bb"></path><path d="M217 0L200 29L228 53Z" fill="#2aa0da" stroke="#2aa0da"></path><path d="M129 337L105 402L170 407Z" fill="#2893ca" stroke="#2893ca"></path><path d="M86 331L105 402L129 337Z" fill="#2cade9" stroke="#2cade9"></path><path d="M86 331L129 337L113 295Z" fill="#083456" stroke="#083456"></path><path d="M86 331L113 295L38 321Z" fill="#0d3f64" stroke="#0d3f64"></path><path d="M741 429L766 386L705 418Z" fill="#2586bb" stroke="#2586bb"></path><path d="M752 358L790 308L735 306Z" fill="#175580" stroke="#175580"></path><path d="M54 233L113 295L110 235Z" fill="#175580" stroke="#175580"></path><path d="M128 470L191 495L180 430Z" fill="#2aa0da" stroke="#2aa0da"></path><path d="M191 495L221 569L252 557Z" fill="#2aa0da" stroke="#2aa0da"></path><path d="M535 600L594 600L571 530Z" fill="#124a72" stroke="#124a72"></path><path d="M160 508L221 569L191 495Z" fill="#175580" stroke="#175580"></path><path d="M761 533L730 479L693 479Z" fill="#175580" stroke="#175580"></path><path d="M741 429L797 421L766 386Z" fill="#124a72" stroke="#124a72"></path><path d="M683 569L693 479L651 537Z" fill="#2279ac" stroke="#2279ac"></path><path d="M692 0L654 46L683 67Z" fill="#2cade9" stroke="#2cade9"></path><path d="M692 0L645 0L654 46Z" fill="#083456" stroke="#083456"></path><path d="M105 402L128 470L170 407Z" fill="#1b618e" stroke="#1b618e"></path><path d="M795 336L790 308L752 358Z" fill="#124a72" stroke="#124a72"></path><path d="M249 0L217 0L228 53Z" fill="#2893ca" stroke="#2893ca"></path><path d="M200 29L152 57L200 78Z" fill="#2aa0da" stroke="#2aa0da"></path><path d="M806 267L784 212L752 240Z" fill="#2586bb" stroke="#2586bb"></path><path d="M807 150L754 110L732 161Z" fill="#2cade9" stroke="#2cade9"></path><path d="M708 101L747 58L683 67Z" fill="#2cade9" stroke="#2cade9"></path><path d="M67 182L86 182L45 140Z" fill="#2586bb" stroke="#2586bb"></path><path d="M109 169L86 182L110 235Z" fill="#083456" stroke="#083456"></path><path d="M118 92L138 166L149 100Z" fill="#124a72" stroke="#124a72"></path><path d="M137 0L152 57L200 29Z" fill="#1b618e" stroke="#1b618e"></path><path d="M766 386L795 336L752 358Z" fill="#124a72" stroke="#124a72"></path><path d="M790 308L806 267L752 240Z" fill="#0d3f64" stroke="#0d3f64"></path><path d="M846 399L795 336L766 386Z" fill="#083456" stroke="#083456"></path><path d="M807 150L732 161L765 204Z" fill="#2586bb" stroke="#2586bb"></path><path d="M152 57L118 92L149 100Z" fill="#1f6d9d" stroke="#1f6d9d"></path><path d="M833 331L806 267L790 308Z" fill="#083456" stroke="#083456"></path><path d="M785 60L747 58L754 110Z" fill="#2aa0da" stroke="#2aa0da"></path><path d="M201 600L229 600L221 569Z" fill="#175580" stroke="#175580"></path><path d="M221 569L229 600L252 557Z" fill="#2586bb" stroke="#2586bb"></path><path d="M145 542L221 569L160 508Z" fill="#124a72" stroke="#124a72"></path><path d="M652 600L683 569L651 537Z" fill="#175580" stroke="#175580"></path><path d="M45 140L86 182L109 169Z" fill="#0d3f64" stroke="#0d3f64"></path><path d="M86 182L54 233L110 235Z" fill="#124a72" stroke="#124a72"></path><path d="M67 182L54 233L86 182Z" fill="#2893ca" stroke="#2893ca"></path><path d="M81 452L128 470L105 402Z" fill="#2aa0da" stroke="#2aa0da"></path><path d="M81 452L106 485L128 470Z" fill="#2cade9" stroke="#2cade9"></path><path d="M128 470L106 485L160 508Z" fill="#175580" stroke="#175580"></path><path d="M81 452L105 402L51 391Z" fill="#0d3f64" stroke="#0d3f64"></path><path d="M594 600L652 600L614 540Z" fill="#1b618e" stroke="#1b618e"></path><path d="M107 535L145 542L160 508Z" fill="#1f6d9d" stroke="#1f6d9d"></path><path d="M747 58L692 0L683 67Z" fill="#2aa0da" stroke="#2aa0da"></path><path d="M807 150L765 204L784 212Z" fill="#175580" stroke="#175580"></path><path d="M754 110L747 58L708 101Z" fill="#0d3f64" stroke="#0d3f64"></path><path d="M797 421L741 429L804 479Z" fill="#2586bb" stroke="#2586bb"></path><path d="M814 448L797 421L804 479Z" fill="#1b618e" stroke="#1b618e"></path><path d="M795 336L833 331L790 308Z" fill="#083456" stroke="#083456"></path><path d="M51 391L105 402L86 331Z" fill="#2586bb" stroke="#2586bb"></path><path d="M106 485L107 535L160 508Z" fill="#2586bb" stroke="#2586bb"></path><path d="M145 542L201 600L221 569Z" fill="#175580" stroke="#175580"></path><path d="M37 328L51 391L86 331Z" fill="#1f6d9d" stroke="#1f6d9d"></path><path d="M54 233L38 321L113 295Z" fill="#2cade9" stroke="#2cade9"></path><path d="M38 321L37 328L86 331Z" fill="#1f6d9d" stroke="#1f6d9d"></path><path d="M831 191L807 150L784 212Z" fill="#2279ac" stroke="#2279ac"></path><path d="M846 399L833 331L795 336Z" fill="#2893ca" stroke="#2893ca"></path><path d="M844 244L831 191L784 212Z" fill="#1b618e" stroke="#1b618e"></path><path d="M152 57L98 52L118 92Z" fill="#2893ca" stroke="#2893ca"></path><path d="M118 92L45 140L109 169Z" fill="#2aa0da" stroke="#2aa0da"></path><path d="M67 182L0 192L54 233Z" fill="#124a72" stroke="#124a72"></path><path d="M137 0L98 52L152 57Z" fill="#2279ac" stroke="#2279ac"></path><path d="M844 244L784 212L806 267Z" fill="#2cade9" stroke="#2cade9"></path><path d="M61 490L107 535L106 485Z" fill="#1b618e" stroke="#1b618e"></path><path d="M145 542L150 600L201 600Z" fill="#0d3f64" stroke="#0d3f64"></path><path d="M61 490L106 485L81 452Z" fill="#0d3f64" stroke="#0d3f64"></path><path d="M683 569L761 533L693 479Z" fill="#083456" stroke="#083456"></path><path d="M797 421L846 399L766 386Z" fill="#2aa0da" stroke="#2aa0da"></path><path d="M713 600L761 533L683 569Z" fill="#2aa0da" stroke="#2aa0da"></path><path d="M217 0L137 0L200 29Z" fill="#124a72" stroke="#124a72"></path><path d="M870 302L844 244L806 267Z" fill="#0d3f64" stroke="#0d3f64"></path><path d="M804 479L741 429L730 479Z" fill="#2586bb" stroke="#2586bb"></path><path d="M47 79L45 140L118 92Z" fill="#0d3f64" stroke="#0d3f64"></path><path d="M54 233L0 262L38 321Z" fill="#2279ac" stroke="#2279ac"></path><path d="M38 321L0 321L37 328Z" fill="#2586bb" stroke="#2586bb"></path><path d="M810 88L754 110L807 150Z" fill="#2aa0da" stroke="#2aa0da"></path><path d="M810 88L785 60L754 110Z" fill="#2279ac" stroke="#2279ac"></path><path d="M747 58L742 0L692 0Z" fill="#124a72" stroke="#124a72"></path><path d="M761 533L804 479L730 479Z" fill="#175580" stroke="#175580"></path><path d="M652 600L713 600L683 569Z" fill="#2586bb" stroke="#2586bb"></path><path d="M860 501L846 458L804 479Z" fill="#2893ca" stroke="#2893ca"></path><path d="M785 60L742 0L747 58Z" fill="#2279ac" stroke="#2279ac"></path><path d="M93 600L150 600L145 542Z" fill="#2cade9" stroke="#2cade9"></path><path d="M35 444L61 490L81 452Z" fill="#0d3f64" stroke="#0d3f64"></path><path d="M107 535L93 600L145 542Z" fill="#1f6d9d" stroke="#1f6d9d"></path><path d="M35 444L81 452L51 391Z" fill="#2893ca" stroke="#2893ca"></path><path d="M850 102L810 88L807 150Z" fill="#2586bb" stroke="#2586bb"></path><path d="M785 60L816 0L742 0Z" fill="#0d3f64" stroke="#0d3f64"></path><path d="M840 150L807 150L831 191Z" fill="#2893ca" stroke="#2893ca"></path><path d="M0 418L35 444L51 391Z" fill="#1f6d9d" stroke="#1f6d9d"></path><path d="M814 448L846 399L797 421Z" fill="#2cade9" stroke="#2cade9"></path><path d="M833 331L870 302L806 267Z" fill="#0d3f64" stroke="#0d3f64"></path><path d="M846 458L846 399L814 448Z" fill="#124a72" stroke="#124a72"></path><path d="M900 181L840 150L831 191Z" fill="#0d3f64" stroke="#0d3f64"></path><path d="M52 0L60 66L98 52Z" fill="#1f6d9d" stroke="#1f6d9d"></path><path d="M98 52L60 66L118 92Z" fill="#1b618e" stroke="#1b618e"></path><path d="M0 192L67 182L45 140Z" fill="#2893ca" stroke="#2893ca"></path><path d="M0 192L0 262L54 233Z" fill="#175580" stroke="#175580"></path><path d="M37 328L0 360L51 391Z" fill="#2586bb" stroke="#2586bb"></path><path d="M0 262L0 321L38 321Z" fill="#2cade9" stroke="#2cade9"></path><path d="M900 318L870 302L900 360Z" fill="#2cade9" stroke="#2cade9"></path><path d="M844 244L900 181L831 191Z" fill="#2893ca" stroke="#2893ca"></path><path d="M60 66L47 79L118 92Z" fill="#2279ac" stroke="#2279ac"></path><path d="M0 321L0 360L37 328Z" fill="#083456" stroke="#083456"></path><path d="M713 600L743 600L761 533Z" fill="#2586bb" stroke="#2586bb"></path><path d="M804 479L846 458L814 448Z" fill="#175580" stroke="#175580"></path><path d="M137 0L96 0L98 52Z" fill="#2279ac" stroke="#2279ac"></path><path d="M0 50L0 94L47 79Z" fill="#0d3f64" stroke="#0d3f64"></path><path d="M0 137L0 192L45 140Z" fill="#0d3f64" stroke="#0d3f64"></path><path d="M812 569L804 479L761 533Z" fill="#2279ac" stroke="#2279ac"></path><path d="M900 360L870 302L833 331Z" fill="#124a72" stroke="#124a72"></path><path d="M0 360L0 418L51 391Z" fill="#083456" stroke="#083456"></path><path d="M35 444L0 505L61 490Z" fill="#2cade9" stroke="#2cade9"></path><path d="M39 565L93 600L107 535Z" fill="#2aa0da" stroke="#2aa0da"></path><path d="M900 149L850 102L840 150Z" fill="#2aa0da" stroke="#2aa0da"></path><path d="M840 150L850 102L807 150Z" fill="#1b618e" stroke="#1b618e"></path><path d="M810 88L829 60L785 60Z" fill="#2893ca" stroke="#2893ca"></path><path d="M850 102L829 60L810 88Z" fill="#2586bb" stroke="#2586bb"></path><path d="M0 94L45 140L47 79Z" fill="#1f6d9d" stroke="#1f6d9d"></path><path d="M0 94L0 137L45 140Z" fill="#1b618e" stroke="#1b618e"></path><path d="M0 418L0 440L35 444Z" fill="#175580" stroke="#175580"></path><path d="M39 565L107 535L61 490Z" fill="#2279ac" stroke="#2279ac"></path><path d="M900 360L833 331L846 399Z" fill="#2893ca" stroke="#2893ca"></path><path d="M870 302L900 240L844 244Z" fill="#083456" stroke="#083456"></path><path d="M900 318L900 240L870 302Z" fill="#2aa0da" stroke="#2aa0da"></path><path d="M743 600L784 600L761 533Z" fill="#2279ac" stroke="#2279ac"></path><path d="M900 405L900 360L846 399Z" fill="#2279ac" stroke="#2279ac"></path><path d="M900 405L846 399L900 440Z" fill="#2aa0da" stroke="#2aa0da"></path><path d="M784 600L812 569L761 533Z" fill="#2586bb" stroke="#2586bb"></path><path d="M0 50L47 79L60 66Z" fill="#2cade9" stroke="#2cade9"></path><path d="M96 0L52 0L98 52Z" fill="#124a72" stroke="#124a72"></path><path d="M834 0L829 60L900 0Z" fill="#0d3f64" stroke="#0d3f64"></path><path d="M834 0L816 0L829 60Z" fill="#124a72" stroke="#124a72"></path><path d="M829 60L816 0L785 60Z" fill="#0d3f64" stroke="#0d3f64"></path><path d="M848 541L860 501L804 479Z" fill="#0d3f64" stroke="#0d3f64"></path><path d="M900 240L900 181L844 244Z" fill="#2cade9" stroke="#2cade9"></path><path d="M900 440L846 399L846 458Z" fill="#083456" stroke="#083456"></path><path d="M0 505L39 565L61 490Z" fill="#083456" stroke="#083456"></path><path d="M0 440L0 505L35 444Z" fill="#124a72" stroke="#124a72"></path><path d="M900 181L900 149L840 150Z" fill="#124a72" stroke="#124a72"></path><path d="M812 569L848 541L804 479Z" fill="#2aa0da" stroke="#2aa0da"></path><path d="M900 495L900 440L846 458Z" fill="#083456" stroke="#083456"></path><path d="M857 600L848 541L812 569Z" fill="#2aa0da" stroke="#2aa0da"></path><path d="M0 600L58 600L39 565Z" fill="#1f6d9d" stroke="#1f6d9d"></path><path d="M39 565L58 600L93 600Z" fill="#2aa0da" stroke="#2aa0da"></path><path d="M900 495L846 458L860 501Z" fill="#2279ac" stroke="#2279ac"></path><path d="M900 66L829 60L850 102Z" fill="#2cade9" stroke="#2cade9"></path><path d="M52 0L0 50L60 66Z" fill="#124a72" stroke="#124a72"></path><path d="M900 149L900 106L850 102Z" fill="#1b618e" stroke="#1b618e"></path><path d="M900 555L860 501L848 541Z" fill="#2586bb" stroke="#2586bb"></path><path d="M900 555L900 495L860 501Z" fill="#2893ca" stroke="#2893ca"></path><path d="M0 505L0 567L39 565Z" fill="#2aa0da" stroke="#2aa0da"></path><path d="M900 106L900 66L850 102Z" fill="#175580" stroke="#175580"></path><path d="M52 0L0 0L0 50Z" fill="#2aa0da" stroke="#2aa0da"></path><path d="M784 600L857 600L812 569Z" fill="#2cade9" stroke="#2cade9"></path><path d="M0 567L0 600L39 565Z" fill="#2586bb" stroke="#2586bb"></path><path d="M857 600L900 555L848 541Z" fill="#2893ca" stroke="#2893ca"></path><path d="M900 66L900 0L829 60Z" fill="#124a72" stroke="#124a72"></path><path d="M857 600L900 600L900 555Z" fill="#083456" stroke="#083456"></path></g></svg>